<?xml version="1.0" encoding="utf-8"?>
<svg  viewBox="0 0 63 63" xmlns="http://www.w3.org/2000/svg">
  <path d="M31.5 60.102c-15.687 0-28.539-12.915-28.539-28.602 0-3.528.63-6.867 1.827-10.017l16.695 33.579c.189.441.504.819 1.008.819s.819-.378 1.008-.819l7.686-17.199c.063-.189.189-.378.378-.378s.252.189.378.378l7.686 17.199c.189.441.504.819 1.008.819s.819-.378 1.008-.819l16.695-33.579A27.98 27.98 0 0 1 60.165 31.5C60.039 47.187 47.187 60.102 31.5 60.102zm0-35.091c-.189 0-.252-.189-.378-.378l-8.946-20.16c2.898-1.071 6.048-1.638 9.324-1.638s6.426.567 9.324 1.638l-8.946 20.16c-.126.252-.189.378-.378.378zm-9.135 20.727c-.189 0-.252-.189-.378-.378L7.497 16.128c2.583-3.969 6.048-7.308 10.269-9.639l10.458 23.247c.126.378.441.504.756.504h5.04c.378 0 .63-.063.819-.504L45.297 6.489a29.526 29.526 0 0 1 10.269 9.639L40.95 45.36c-.063.189-.189.378-.378.378s-.252-.189-.378-.378l-5.481-12.474c-.189-.441-.441-.504-.819-.504h-5.04c-.378 0-.63.063-.819.504L22.743 45.36c-.063.189-.189.378-.378.378zM31.5 63C48.951 63 63 48.951 63 31.5S48.951 0 31.5 0 0 14.049 0 31.5 14.049 63 31.5 63z" fill="#001E50" fill-rule="nonzero"/>
</svg>
